<?xml version="1.0" standalone="no"?>
<!DOCTYPE svg PUBLIC "-//W3C//DTD SVG 20010904//EN"
 "http://www.w3.org/TR/2001/REC-SVG-20010904/DTD/svg10.dtd">
<svg version="1.0" xmlns="http://www.w3.org/2000/svg"
 width="300.000000pt" height="300.000000pt" viewBox="0 0 300.000000 300.000000"
 preserveAspectRatio="xMidYMid meet">
<metadata>
Created by potrace 1.10, written by Peter Selinger 2001-2011
</metadata>
<g transform="translate(0.000000,300.000000) scale(0.100000,-0.100000)"
fill="#000000" stroke="none">
<path d="M391 2709 c-78 -23 -148 -88 -182 -167 -18 -41 -19 -86 -19 -855 0
-781 1 -814 20 -855 32 -70 69 -110 133 -142 l60 -30 314 0 313 0 0 -95 0 -95
-60 0 c-52 0 -64 -4 -92 -29 -45 -40 -45 -92 0 -133 l33 -29 847 3 847 3 47
24 c57 29 98 71 130 131 l23 45 3 1006 c2 978 2 1008 -17 1052 -26 61 -79 117
-138 147 l-48 25 -1090 2 c-684 1 -1103 -2 -1124 -8z m1119 -10 c41 0 100 3
130 7 l55 5 -51 -30 c-28 -16 -66 -49 -83 -73 -62 -84 -61 -75 -61 -815 l0
-673 -182 0 c-191 -1 -203 -3 -226 -47 -20 -37 -14 -73 17 -104 l29 -29 181 0
180 0 3 -222 c3 -202 5 -227 24 -269 25 -53 79 -110 132 -139 l37 -20 -50 7
c-67 11 -212 10 -255 -1 l-35 -8 25 26 c36 40 33 90 -8 127 -28 25 -40 29 -92
29 l-60 0 0 95 0 95 61 0 c73 0 96 11 115 56 12 29 12 39 0 68 -8 18 -20 37
-27 42 -8 5 -222 11 -476 14 l-463 5 -27 28 c-28 27 -28 28 -31 187 l-3 160
480 0 c338 0 487 3 505 11 31 15 56 65 49 101 -3 14 -16 37 -30 50 l-25 23
-344 2 -345 2 -2 421 -2 420 342 0 341 0 30 25 c54 46 50 108 -10 145 -31 19
-51 20 -416 20 -418 0 -436 -2 -461 -56 -8 -18 -11 -167 -11 -504 l0 -480 -50
0 -50 0 0 528 c0 508 1 528 20 560 11 17 21 33 22 34 2 1 213 5 470 8 l468 5
27 27 c35 35 35 88 1 125 l-23 26 40 -8 c22 -4 74 -7 115 -6z m-148 -36 c25
-22 23 -55 -5 -81 -22 -21 -28 -21 -467 -24 -493 -3 -490 -3 -522 -68 -16 -32
-18 -80 -18 -554 0 -582 -3 -556 71 -556 28 0 42 6 56 24 18 22 19 49 18 472
-1 247 1 459 3 471 2 12 13 31 23 42 19 21 28 21 410 21 l390 0 24 -26 c30
-33 31 -48 5 -74 -24 -24 1 -22 -345 -25 -363 -3 -342 -2 -365 -25 -19 -19
-20 -33 -20 -430 l0 -411 25 -24 24 -25 336 0 c322 0 336 -1 355 -20 23 -23
24 -29 10 -64 -6 -16 -21 -28 -42 -34 -18 -5 -237 -9 -486 -9 -420 0 -454 -2
-472 -18 -18 -16 -20 -32 -20 -162 0 -152 6 -178 50 -218 21 -19 40 -20 482
-25 l460 -5 20 -24 c13 -17 17 -33 13 -50 -10 -41 -36 -57 -99 -65 -32 -3 -63
-9 -67 -12 -10 -6 -12 -174 -3 -198 5 -12 20 -16 64 -16 42 0 59 -4 64 -15 3
-8 12 -15 21 -15 22 0 35 -40 22 -67 -5 -12 -13 -20 -17 -18 -4 3 -13 -2 -19
-9 -10 -12 -50 -14 -218 -11 -203 3 -206 3 -224 26 -23 30 -23 42 -2 67 13 14
35 22 72 26 78 7 93 26 95 118 2 77 -11 121 -40 132 -10 4 -142 7 -295 7 -324
0 -358 5 -427 72 -85 82 -81 39 -81 916 -1 883 -4 850 77 928 50 49 75 62 137
73 22 3 236 5 475 3 381 -4 437 -6 452 -20z m1264 -2 c67 -29 110 -74 134
-142 20 -53 20 -79 20 -1017 -1 -943 -1 -965 -21 -1018 -27 -72 -59 -107 -125
-140 l-55 -27 -392 -1 c-415 -1 -515 4 -533 29 -6 8 -13 13 -16 10 -5 -6 -38
29 -83 89 l-30 39 -3 228 c-3 171 -7 231 -17 239 -7 6 -81 12 -183 13 -150 3
-174 6 -192 22 -11 10 -20 30 -20 44 1 62 28 71 217 71 112 0 164 4 176 12 25
19 32 199 29 833 -1 328 3 554 9 577 5 20 28 57 52 83 72 80 76 80 562 79 411
-1 421 -1 471 -23z"/>
<path d="M1365 2450 c-4 -6 19 -10 62 -10 48 0 63 3 53 10 -20 13 -107 13
-115 0z"/>
<path d="M1400 1401 c-25 -8 -25 -8 7 -15 18 -4 43 -4 55 0 22 7 22 7 3 15
-24 9 -33 9 -65 0z"/>
<path d="M1730 2539 c-14 -5 -33 -23 -42 -40 -16 -27 -18 -65 -18 -362 0 -355
3 -379 53 -489 22 -47 136 -184 141 -169 0 3 19 -7 41 -20 22 -14 56 -31 75
-38 19 -7 45 -18 57 -23 12 -6 61 -11 110 -12 120 -1 206 29 313 108 65 49 84
66 73 66 -4 0 -1 6 7 13 26 21 49 63 77 144 l27 78 2 325 c1 300 0 328 -17
366 -11 22 -31 46 -45 52 -31 15 -816 15 -854 1z m852 -20 c43 -23 48 -60 48
-371 0 -220 -4 -310 -15 -363 -37 -174 -148 -299 -317 -356 -52 -17 -81 -20
-164 -17 -93 3 -107 6 -180 42 -100 50 -171 122 -222 225 l-37 75 -3 361 -3
361 27 27 27 27 409 0 c274 0 416 -4 430 -11z"/>
<path d="M1813 2316 c-22 -19 -28 -32 -28 -66 0 -34 6 -47 28 -66 l28 -24 315
0 316 0 29 29 c37 37 38 79 3 120 l-26 31 -318 0 -319 0 -28 -24z m635 0 c30
-6 42 -12 38 -21 -2 -7 2 -16 10 -19 18 -7 18 -40 -1 -59 -8 -8 -11 -18 -7
-22 4 -5 -1 -5 -10 -2 -9 3 -18 1 -21 -6 -3 -9 -78 -13 -289 -14 -282 -2 -343
2 -317 18 9 5 5 10 -13 14 -14 4 -28 14 -30 23 -6 23 5 63 17 65 6 1 9 5 8 9
-3 8 22 15 67 20 55 6 508 1 548 -6z"/>
<path d="M1831 1956 c-26 -15 -50 -51 -51 -79 0 -31 28 -74 58 -86 20 -8 116
-11 336 -9 l308 3 24 28 c41 48 29 113 -26 142 -40 21 -612 22 -649 1z m633
-21 c8 -8 20 -15 26 -15 6 0 8 -4 5 -10 -3 -5 -1 -10 4 -10 17 0 13 -47 -5
-54 -8 -3 -12 -11 -8 -17 4 -7 3 -9 -3 -6 -6 4 -16 0 -23 -8 -11 -13 -58 -15
-304 -15 -312 0 -335 4 -346 50 -8 32 12 82 36 91 11 4 150 8 311 8 246 1 294
-1 307 -14z"/>
<path d="M1669 1413 c-11 -13 -14 -97 -14 -452 l0 -436 23 -33 c41 -57 38 -57
412 -60 190 -1 379 1 420 4 71 6 77 8 113 45 l37 40 0 432 c0 375 -2 435 -16
455 -22 31 -43 28 -105 -19 -84 -63 -196 -115 -274 -125 -16 -2 -46 -6 -66 -9
-20 -3 -70 -1 -111 5 -124 15 -216 52 -313 125 -64 49 -85 54 -106 28z m956
-862 c-4 -18 -17 -44 -30 -57 l-24 -24 -414 0 -413 0 -27 28 -26 27 -3 443
c-2 243 -2 442 0 442 1 0 28 -21 60 -47 148 -121 353 -169 547 -128 90 19 220
83 282 139 l48 44 3 -417 c1 -229 0 -431 -3 -450z"/>
<path d="M2044 1101 c-183 -83 -224 -330 -76 -463 23 -21 59 -45 79 -54 50
-22 166 -23 215 -2 53 23 123 92 150 146 28 58 30 167 4 225 -25 56 -85 117
-141 143 -64 30 -170 33 -231 5z m225 -41 c100 -51 152 -175 121 -290 -15 -58
-97 -140 -156 -158 -98 -29 -179 -8 -249 63 -72 73 -89 144 -60 242 22 74 89
139 166 162 45 13 134 4 178 -19z"/>
<path d="M2098 944 c-34 -18 -58 -62 -58 -108 0 -26 9 -44 34 -70 29 -31 39
-36 81 -36 40 0 52 5 81 34 29 29 34 41 34 79 0 38 -6 52 -34 81 -27 30 -40
36 -72 36 -22 -1 -51 -7 -66 -16z m130 -39 c51 -59 6 -155 -73 -155 -65 0
-110 69 -85 131 26 62 113 75 158 24z"/>
</g>
</svg>
